# xmcd
#
# Track frame offsets: 
#        150
#        15135
#        30475
#        43661
#        57634
#        72098
#        86232
#        101944
#        118785
#        133678
#        146573
#        160501
#        175579
#        190059
#        203994
#
# Disc length: 2840 seconds
#
# Revision: 0
# Processed by: cddbd v1.5.2PL0 Copyright (c) Steve Scherf et al.
# Submitted via: ExactAudioCopyFreeDBPlugin 1.0
#
DISCID=cc0b160f
DTITLE=Lil Wyte - The Bad Influence
DYEAR=2009
DGENRE=Rap
TTITLE0=Some Other Shit Feat. DJ Paul and Project Pat
TTITLE1=All Stops
TTITLE2=I Say Yes Feat. Project Pat
TTITLE3=Leanin' Off Dat Yurple
TTITLE4=One Lil Pill
TTITLE5=I Rep Mine
TTITLE6=I'm Da Bad Influence
TTITLE7=Oxy Cotton Feat. Juicy J and Project Pat
TTITLE8=Supply And Demand
TTITLE9=George Bush
TTITLE10=Get Gone
TTITLE11=So Called Homies
TTITLE12=That's What It Is Feat. Project Pat
TTITLE13=Maria Feat. Juicy J
TTITLE14=Outro
EXTD=
EXTT0=
EXTT1=
EXTT2=
EXTT3=
EXTT4=
EXTT5=
EXTT6=
EXTT7=
EXTT8=
EXTT9=
EXTT10=
EXTT11=
EXTT12=
EXTT13=
EXTT14=
PLAYORDER=
